<svg fill="none" height="880" viewBox="0 0 1298 880" width="1298" xmlns="http://www.w3.org/2000/svg" xmlns:xlink="http://www.w3.org/1999/xlink"><clipPath id="a"><path d="m0 0h1298v880h-1298z"/></clipPath><g clip-path="url(#a)"><path d="m565.01 602.81c-12.95-9.64-25.91-19.28-38.86-28.92-38.29-28.49-77.18-57.57-105.46-96.01-11.18-15.2-20.71-32.07-24.35-50.58-.75-3.81-1.17-8.03.89-11.32 3.51-5.58 11.66-5.19 18.12-3.87 19.38 3.97 38.28 10.29 56.16 18.76-10.77-39.84-57.88-58.97-75.83-96.13-2.91-6.03-5.01-12.93-3.16-19.36 1.19-4.13 3.93-7.69 7.2-10.49 11.1-9.52 27.63-10.39 41.55-5.94 13.92 4.46 25.86 13.46 37.5 22.3-16.04-11.67-28.66-27.98-35.94-46.44-3.01-7.65-5.07-16.49-1.52-23.9 6.01-12.57 24.53-13.32 36.66-6.47 23.41 13.21 30.89 42.66 37.57 68.7s18.17 55.35 43.83 63.36c3.08.96 6.43 1.66 8.71 3.94 4.44 4.45 2.19 12.33-2.16 16.87s-10.31 7.32-14.51 12c-9.41 10.49-7.24 26.91-2.17 40.06s12.57 26.05 12.13 40.14c-.55 17.52 4.18 38.36 5.09 55.86.42 7.95-13.93 10.28-12.05 18.01s2.16 16.59-2.67 22.92-16.21 7.53-20.18.64" fill="#1a4a67"/><path d="m589.01 582.05c-.97 0-1.92-.5-2.44-1.41-32.29-55.99-116.58-201.89-120.89-207.95-.79-.86-.98-2.17-.39-3.25.75-1.36 2.44-1.86 3.82-1.11.89.49 2.25 1.23 122.32 209.5.78 1.34.31 3.06-1.03 3.84-.43.26-.92.38-1.39.38z" fill="#fff"/><path d="m537.49 492.87c-.15 0-.3-.01-.45-.04l-79.19-12.75c-1.53-.25-2.58-1.69-2.33-3.22.25-1.54 1.69-2.58 3.22-2.33l79.19 12.75c1.53.25 2.58 1.69 2.33 3.22-.22 1.39-1.42 2.37-2.77 2.37z" fill="#fff"/><path d="m1137.15 744.47c-1.73.86-4.43 1.35-8.38 1.35-106.25-.01-212.47-.04-318.74.25-53.22.14-106.45-.24-159.67-.12-26.88.06-53.76.25-80.63.7-13.44.23-26.88.52-40.32.89-9.88.27-21.87 2.11-31.28-2-3.21-1.4-6.24-3.28-7.52-6.73-.21-.82-.26-1.64-.16-2.48 1.04-7.16 12.01-19.18 16.32-25.11 8.85-12.17 17.9-25.41 33.77-29.63 9.23-2.45 18.97-2.41 28.55-2.35 168.09 0 336.19.93 504.27 1.45 10.54.03 23.55 1.58 30.88 9.63 9.32 10.23 17.52 21.3 25.06 32.76 4.55 6.85 15.45 17.62 7.85 21.39z" fill="#a7a9ac"/><path d="m1064.84 687.88h-503.47c-24.73 0-44.96-20.23-44.96-44.96v-357.25c0-24.73 20.23-44.96 44.96-44.96h503.48c24.73 0 44.96 20.23 44.96 44.96v357.24c0 24.74-20.24 44.97-44.97 44.97z" fill="#e6e7e8"/><path clip-rule="evenodd" d="m561.37 690.69h503.47c26.35 0 47.78-21.43 47.78-47.78v-357.24c0-26.34-21.43-47.77-47.77-47.77h-503.48c-26.34 0-47.77 21.43-47.77 47.77v357.25c0 26.34 21.43 47.77 47.77 47.77zm-42.15-405.02c0-23.24 18.91-42.15 42.15-42.15h503.48c23.24 0 42.15 18.91 42.15 42.15v357.24c0 23.24-18.91 42.15-42.15 42.15h-503.48c-23.24 0-42.15-18.91-42.15-42.15z" fill="#1a4a67" fill-rule="evenodd"/><path d="m577.04 260.15c-25.64 0-46.62 20.98-46.62 46.62v244.37c151.74-91.06 300.15-187.29 443.46-290.99z" fill="#eff0fc"/><path d="m1046.61 260.15h-72.73c-143.32 103.69-291.72 199.93-443.46 290.99v52.82c0 25.64 20.98 46.62 46.62 46.62h469.57c25.64 0 46.62-20.98 46.62-46.62v-297.19c0-25.64-20.98-46.62-46.62-46.62z" fill="#fff"/><path d="m844.91 667.48h-42.53c-.76 0-1.38-.62-1.38-1.38v-.92c0-.76.62-1.38 1.38-1.38h42.53c.76 0 1.38.62 1.38 1.38v.92c0 .76-.62 1.38-1.38 1.38z" fill="#e3e5fc"/><path d="m572.99 255.73c2.286 0 4.14-1.854 4.14-4.14 0-2.287-1.854-4.14-4.14-4.14s-4.14 1.853-4.14 4.14c0 2.286 1.854 4.14 4.14 4.14z" fill="#e3e5fc"/><path d="m590.82 255.73c2.286 0 4.14-1.854 4.14-4.14 0-2.287-1.854-4.14-4.14-4.14s-4.14 1.853-4.14 4.14c0 2.286 1.854 4.14 4.14 4.14z" fill="#fff"/><path d="m608.81 255.73c2.286 0 4.14-1.854 4.14-4.14 0-2.287-1.854-4.14-4.14-4.14s-4.14 1.853-4.14 4.14c0 2.286 1.854 4.14 4.14 4.14z" fill="#1a4a67"/><path d="m563.39 709.81h-16.64c-2.19 0-3.98-1.79-3.98-3.98v-2.63c0-2.19 1.79-3.98 3.98-3.98h16.64c2.19 0 3.98 1.79 3.98 3.98v2.63c0 2.19-1.79 3.98-3.98 3.98z" fill="#e3e5fc"/><path d="m604.3 709.81h-16.64c-2.19 0-3.98-1.79-3.98-3.98v-2.63c0-2.19 1.79-3.98 3.98-3.98h16.64c2.19 0 3.98 1.79 3.98 3.98v2.63c.01 2.19-1.79 3.98-3.98 3.98z" fill="#e3e5fc"/><path d="m645.22 709.81h-16.64c-2.19 0-3.98-1.79-3.98-3.98v-2.63c0-2.19 1.79-3.98 3.98-3.98h16.64c2.19 0 3.98 1.79 3.98 3.98v2.63c0 2.19-1.79 3.98-3.98 3.98z" fill="#e3e5fc"/><path d="m686.13 709.81h-16.64c-2.19 0-3.98-1.79-3.98-3.98v-2.63c0-2.19 1.79-3.98 3.98-3.98h16.64c2.19 0 3.98 1.79 3.98 3.98v2.63c0 2.19-1.79 3.98-3.98 3.98z" fill="#e3e5fc"/><path d="m727.04 709.81h-16.64c-2.19 0-3.98-1.79-3.98-3.98v-2.63c0-2.19 1.79-3.98 3.98-3.98h16.64c2.19 0 3.98 1.79 3.98 3.98v2.63c.01 2.19-1.79 3.98-3.98 3.98z" fill="#e3e5fc"/><path d="m767.96 709.81h-16.64c-2.19 0-3.98-1.79-3.98-3.98v-2.63c0-2.19 1.79-3.98 3.98-3.98h16.64c2.19 0 3.98 1.79 3.98 3.98v2.63c0 2.19-1.79 3.98-3.98 3.98z" fill="#e3e5fc"/><path d="m808.87 709.81h-16.64c-2.19 0-3.98-1.79-3.98-3.98v-2.63c0-2.19 1.79-3.98 3.98-3.98h16.64c2.19 0 3.98 1.79 3.98 3.98v2.63c0 2.19-1.79 3.98-3.98 3.98z" fill="#e3e5fc"/><path d="m849.79 709.81h-16.64c-2.19 0-3.98-1.79-3.98-3.98v-2.63c0-2.19 1.79-3.98 3.98-3.98h16.64c2.19 0 3.98 1.79 3.98 3.98v2.63c0 2.19-1.79 3.98-3.98 3.98z" fill="#e3e5fc"/><path d="m890.7 709.81h-16.64c-2.19 0-3.98-1.79-3.98-3.98v-2.63c0-2.19 1.79-3.98 3.98-3.98h16.64c2.19 0 3.98 1.79 3.98 3.98v2.63c0 2.19-1.79 3.98-3.98 3.98z" fill="#e3e5fc"/><path d="m931.61 709.81h-16.64c-2.19 0-3.98-1.79-3.98-3.98v-2.63c0-2.19 1.79-3.98 3.98-3.98h16.64c2.19 0 3.98 1.79 3.98 3.98v2.63c.01 2.19-1.79 3.98-3.98 3.98z" fill="#e3e5fc"/><path d="m972.53 709.81h-16.64c-2.19 0-3.98-1.79-3.98-3.98v-2.63c0-2.19 1.79-3.98 3.98-3.98h16.64c2.19 0 3.98 1.79 3.98 3.98v2.63c0 2.19-1.79 3.98-3.98 3.98z" fill="#e3e5fc"/><path d="m1013.44 709.81h-16.64c-2.19 0-3.98-1.79-3.98-3.98v-2.63c0-2.19 1.79-3.98 3.98-3.98h16.64c2.19 0 3.98 1.79 3.98 3.98v2.63c0 2.19-1.79 3.98-3.98 3.98z" fill="#e3e5fc"/><path d="m1054.35 709.81h-16.64c-2.19 0-3.98-1.79-3.98-3.98v-2.63c0-2.19 1.79-3.98 3.98-3.98h16.64c2.19 0 3.98 1.79 3.98 3.98v2.63c.01 2.19-1.78 3.98-3.98 3.98z" fill="#e3e5fc"/><path d="m1204.11 786.1c1.73 2.02 4.09 2.06 6.26 2 12.55-.33 25.13.59 37.68.52 11.86-.07 21.67 1.03 22.91-21.65.26-4.78.76-36.15 2.53-60.01h-84.1c3.17 24.34 6.66 48.88 11.93 72 .62 2.65 1.33 5.43 2.79 7.14z" fill="#37c1d3"/><path clip-rule="evenodd" d="m1231.23 791.13c5.01.15 10.17.3 15.29.3.52 0 1.04 0 1.56-.01l1.64-.01h.01c11.17-.02 22.72-.041 24.05-24.31.06-1.22.15-4.15.26-8.25.01-.304.02-.616.03-.934.34-12.066.95-33.472 2.24-50.776l.22-3.02h-90.33l.41 3.17c2.91 22.26 6.46 48.02 11.98 72.27.7 3.04 1.53 6.19 3.39 8.36 2.68 3.13 6.31 3.05 8.47 2.98 6.9-.17 13.95.03 20.78.23zm.17-5.61c-5.02-.15-10.16-.3-15.3-.3-1.94 0-3.87.02-5.8.07-2.14.04-3.24-.08-4.05-1.02-1.1-1.286-1.76-4.148-2.16-5.893l-.01-.057c-5.21-22.87-8.66-47.19-11.47-68.57h77.88c-1.18 17.31-1.75 37.7-2.06 48.95-.11 4.03-.19 6.91-.26 8.11-1.04 18.97-7.6 18.98-18.46 18.99l-1.66.01c-5.43.039-10.91-.122-16.24-.278z" fill="#1a4a67" fill-rule="evenodd"/><path d="m1230.87 759.64c9.34 0 16.91-7.571 16.91-16.91s-7.57-16.91-16.91-16.91-16.91 7.571-16.91 16.91 7.57 16.91 16.91 16.91z" fill="#fff"/><path d="m1216.61 664.46c-4.18-.96-8.18-2.49-11.69-4.95-6.36-4.45-10.68-12.49-8.87-20.03 3.27-13.61 23.35-18.8 24.7-32.73.54-5.54-2.23-10.83-3.02-16.34s1.87-12.56 7.43-12.77c2.26 10.16 9.05 19.23 18.16 24.27 4.23 2.34 8.97 3.88 12.67 6.99s6.12 8.59 3.81 12.84c-1.59 2.94-4.89 4.43-7.66 6.32s-5.35 5.1-4.34 8.29c.5 1.58 1.79 2.76 3.05 3.85 4.14 3.58 19.51 11.34 13.14 18.73-1.94 2.25-4.94 3.22-7.82 3.96-9.5 2.44-19.37 3.43-29.17 2.93-3.47-.19-6.99-.58-10.39-1.36z" fill="#37c1d3"/><path clip-rule="evenodd" d="m1226.86 668.62c1.72.08 3.44.13 5.16.13 8.38 0 16.72-1.06 24.83-3.13 3.38-.87 6.84-2.06 9.25-4.85 1.7-1.98 2.44-4.25 2.14-6.59-.72-5.687-7.4-10.319-12.29-13.707l-.03-.023-.07-.051c-1.3-.899-2.43-1.681-3.18-2.319-1.01-.87-1.94-1.72-2.21-2.57-.53-1.64 1.31-3.8 3.24-5.11.6-.4 1.21-.79 1.83-1.17 2.41-1.5 5.13-3.2 6.72-6.13 3.07-5.67.07-12.51-4.48-16.33-2.74-2.296-5.88-3.774-8.9-5.202l-.02-.008c-1.42-.67-2.84-1.34-4.2-2.09-8.41-4.65-14.68-13.03-16.77-22.42l-.51-2.29-2.34.09c-2.69.11-5.09 1.33-6.93 3.54-2.57 3.09-3.81 7.97-3.17 12.44.33 2.258.94 4.417 1.53 6.505v.005c.91 3.2 1.76 6.22 1.48 9.15-.59 6.12-5.81 10.53-11.34 15.2l-.06.047c-5.63 4.776-11.45 9.707-13.23 17.103-1.94 8.07 2.17 17.52 9.99 22.99 3.55 2.49 7.7 4.25 12.67 5.38 3.24.74 6.81 1.2 10.89 1.41zm-4.41-86.65c.24-.29.5-.54.76-.75 3 9.72 9.84 18.23 18.74 23.15 1.47.81 3 1.53 4.53 2.25 2.84 1.33 5.52 2.59 7.7 4.43 2.77 2.34 4.71 6.47 3.15 9.35-.88 1.618-2.75 2.787-4.74 4.025l-.01.005c-.13.082-.26.163-.39.245-.55.346-1.1.691-1.63 1.055-3.61 2.47-6.93 6.77-5.43 11.46.71 2.24 2.31 3.76 3.89 5.12.88.75 2.2 1.68 3.73 2.74 3.57 2.47 9.54 6.61 9.95 9.83.07.5.03 1.21-.82 2.2-1.32 1.52-3.51 2.33-6.39 3.07-9.26 2.37-18.81 3.33-28.33 2.84-3.76-.2-7.01-.61-9.93-1.28-4.25-.97-7.75-2.44-10.7-4.51-5.97-4.17-9.16-11.19-7.74-17.07 1.35-5.63 6.26-9.78 11.46-14.17 6.14-5.19 12.49-10.56 13.3-18.95.39-3.98-.65-7.66-1.66-11.22-.02-.077-.04-.154-.06-.231-.54-1.915-1.05-3.732-1.31-5.549-.42-2.87.38-6.18 1.93-8.04z" fill="#1a4a67" fill-rule="evenodd"/><path d="m1267.53 701.69h-73.9c-7.6 0-13.81-6.22-13.81-13.81 0-7.6 6.22-13.81 13.81-13.81h73.9c7.6 0 13.81 6.22 13.81 13.81 0 7.6-6.21 13.81-13.81 13.81z" fill="#1a4a67"/><path d="m1179.98 505.48c10.87-7.6 22.51-18 21.57-31.23-16.55-.4-33.17 3.07-48.18 10.05-5.29-7.01 3.29-16 10.81-20.52 16.3-9.81 32.61-19.62 48.91-29.42-5.72-5.3-13.46-8.37-21.26-8.42-6.06-14.67 22.94-24.42 20.33-40.08-1.37-8.22-11.69-12.3-19.74-10.15s-14.19 8.5-19.89 14.58c3.61-10.34 10.27-19.28 15.57-28.87s9.34-20.67 7-31.37-13.18-20.04-23.79-17.3c-7.33 1.89-12.3 8.58-16.14 15.11-8.36 14.2-14.32 29.8-17.56 45.95-1.94 9.64-7.59 22.66-16.92 19.55-5.04-1.68-7.15-7.48-10.44-11.65-9.21-11.69-29.41-9.27-38.86 2.22s-9.71 28.35-4.93 42.44c2.95 8.7 6.9 20.03-.38 25.63-7.17 5.52-18.61-.79-26.25 4.04-9.24 5.84-4.09 19.77-2.99 30.65 1.31 12.96-4.9 25.32-10.04 37.28-5.14 11.97-9.33 25.78-4.15 37.72 15.58 35.9 135.65-41.06 157.33-56.21z" fill="#37c1d3"/><path clip-rule="evenodd" d="m1031.98 572.85c2.6.74 5.53 1.08 8.72 1.08 43.81 0 138.5-64.493 140.86-66.105l.04-.025c10.29-7.19 23.85-18.51 22.76-33.74l-.18-2.55-2.55-.06c-16.14-.37-32.23 2.79-46.95 9.2-.16-.69-.16-1.42-.01-2.21.85-4.41 6.12-9.32 10.97-12.24l52.12-31.35-2.74-2.54c-5.72-5.29-13.3-8.54-21.07-9.09-.88-4.78 3.06-9.21 9.36-15.56l.03-.032c6.14-6.202 13.11-13.234 11.61-22.218-.66-3.96-3.07-7.46-6.78-9.85-4.71-3.03-11.02-4-16.46-2.55-3.79 1.01-7.17 2.86-10.22 5.08 1.02-1.768 2.1-3.543 3.19-5.342.22-.349.43-.698.64-1.048l.12-.192c1.75-2.876 3.51-5.763 5.13-8.708 7.02-12.71 9.4-23.61 7.28-33.32-1.49-6.82-5.96-13.1-11.96-16.79-4.85-2.98-10.28-3.93-15.27-2.63-8.58 2.21-14.05 9.93-17.86 16.4-8.56 14.54-14.58 30.3-17.9 46.83-1.26 6.23-4.3 14.43-8.76 17.01-1.45.84-2.88.97-4.52.43-2.66-.89-4.45-3.7-6.34-6.67-.89-1.4-1.78-2.8-2.78-4.06-4.36-5.55-11.12-8.65-19.02-8.74h-.33c-9.2 0-18.32 4.16-23.88 10.91-10.82 13.15-9.89 31.93-5.32 45.43 2.71 7.97 6.07 17.89.47 22.2-2.86 2.19-7.05 1.94-11.48 1.67l-.05-.003c-4.71-.28-10.05-.596-14.51 2.223-8.86 5.59-6.99 16.55-5.34 26.21l.03.174c.41 2.436.8 4.738 1.02 6.916 1.11 10.848-3.6 21.627-8.16 32.059l-.04.091-1.62 3.74c-4.98 11.58-9.95 26.59-4.15 39.95 2.18 5.03 6.19 8.4 11.9 10.02zm9.34-114.42c1.94-1.22 4.33-1.54 6.95-1.54 1.38 0 2.82.09 4.26.19 5.03.31 10.72.65 15.24-2.83 8.79-6.76 4.54-19.31 1.33-28.76-3.99-11.77-4.92-28.39 4.44-39.76 4.57-5.55 12.16-9.03 19.81-8.86 6.16.06 11.37 2.4 14.67 6.59.88 1.12 1.67 2.36 2.46 3.6 2.22 3.5 4.75 7.46 9.3 8.98 3.15 1.05 6.3.73 9.12-.9 7.64-4.43 10.7-17.02 11.45-20.77 3.19-15.91 8.99-31.08 17.23-45.08 3.26-5.53 7.84-12.11 14.42-13.81 4.48-1.15 8.42.44 10.93 1.98 4.66 2.86 8.26 7.92 9.42 13.2 1.82 8.33-.38 17.94-6.71 29.41-1.63 2.94-3.38 5.82-5.14 8.7-3.95 6.48-8.04 13.19-10.63 20.6l-4.38 12.53 9.09-9.68c6.26-6.67 11.61-11.93 18.57-13.79 3.9-1.05 8.6-.32 11.96 1.84 1.67 1.08 3.77 3 4.28 6.05 1.03 6.154-4.36 11.589-10.07 17.353l-.02.017c-6.52 6.57-13.9 14.02-10.07 23.31l.71 1.72 1.86.01c5.82.04 11.62 1.93 16.39 5.27l-45.48 27.36c-5.74 3.46-12.33 9.47-13.59 15.99-.6 3.13.08 6.12 1.99 8.64l1.37 1.81 2.06-.96c13.76-6.41 28.98-9.78 44.18-9.82-.8 11.18-11.85 20.19-20.37 26.15-21.04 14.71-101.03 65.2-137.35 65.19-2.77 0-5.29-.29-7.51-.92-4.07-1.15-6.77-3.39-8.27-6.85-4.95-11.39-.38-24.95 4.15-35.5l1.61-3.7.01-.02c4.86-11.114 9.88-22.607 8.63-34.95-.23-2.356-.66-4.854-1.07-7.273l-.03-.197c-1.74-10.22-2.49-17.18 2.8-20.52z" fill="#1a4a67" fill-rule="evenodd"/><path d="m1201.86 591.78c3.61-3.45 7.32-7.8 6.71-12.76-.64-5.18-6.03-8.7-11.23-9.05-5.21-.35-10.24 1.7-15.05 3.7-2.92-3.91 1.44-9.08 5.5-11.78 18.11-12.06 41.15-22.75 45.56-44.06.37-1.78.55-3.77-.47-5.28-1.01-1.5-2.93-2.08-4.72-2.3-10.85-1.37-20.73 6.24-31.51 8.07-11.86 2.01-23.82-3.12-35.85-2.77-9.69.28-18.88 4.08-27.81 7.82-16.6 6.95-33.63 14.18-46.47 26.78-19.29 18.93-46.62 73.89-6.03 84.58 39.24 10.35 93.9-16.74 121.37-42.95z" fill="#1a4a67"/><path d="m1055.71 533.6c-.67 0-1.34-.24-1.87-.72-1.16-1.03-1.26-2.81-.22-3.97l94.07-105.25c1.04-1.16 2.81-1.26 3.97-.22 1.16 1.03 1.26 2.81.22 3.97l-94.07 105.25c-.56.62-1.33.94-2.1.94z" fill="#fff"/><path d="m1107.25 475.91c-1.39 0-2.6-1.04-2.78-2.45l-7.64-59.71c-.2-1.54.89-2.95 2.43-3.15 1.51-.19 2.94.89 3.14 2.43l7.64 59.71c.2 1.54-.89 2.95-2.43 3.15-.12.02-.24.02-.36.02z" fill="#fff"/><path d="m1050.07 639.04c-.91 0-1.8-.44-2.35-1.26-.86-1.29-.51-3.04.79-3.9l106.46-70.62c1.3-.86 3.04-.5 3.9.79s.51 3.04-.79 3.9l-106.46 70.62c-.48.32-1.02.47-1.55.47z" fill="#fff"/><path d="m1113.15 598.13c-.24 0-.48-.03-.71-.09-1.5-.39-2.4-1.92-2.01-3.43l11.95-45.91c.39-1.51 1.95-2.4 3.42-2.01 1.5.39 2.4 1.92 2.01 3.43l-11.95 45.91c-.32 1.26-1.46 2.1-2.71 2.1z" fill="#fff"/><path d="m609.04 693.45c-1.71.72-3.41 1.44-5.12 2.16 2.65-21.12 2.73-42.43 3.58-63.67.27-6.73-1.81-20.94 4.24-23.92 7.83-3.86 17.11 4.11 25.04.53 8.96-4.05 7.29-14.5 9.02-22.48 1.45-6.67 10.51-39.13 20.53-22.96 15.12-9.69 28.05-31.36 46.92-34.2 3.44-.52 7.41.75 8.98 3.86.92 1.83.89 3.98.66 6.02-.54 4.86-2.11 9.6-4.57 13.82-1.64 2.82-3.7 5.45-4.69 8.56s-.62 6.97 1.94 8.99c2.23 1.76 5.34 1.63 8.13 2.12 2.79.5 5.93 2.45 5.64 5.27-.11 1.12-.76 2.1-1.39 3.04-28.35 41.93-41.69 93.08-81.82 126.14-6.08 5.01-12.9 9.73-20.73 10.61-9.16 1.03-18.24-3.51-24.78-10.01-6.54-6.49-10.94-14.78-15.14-22.98" fill="#1a4a67"/><path d="m712.16 764.01c17.79-3.7 36.64-8.37 49.03-21.66-10.31-1.65-20.62-3.3-30.93-4.95-1.39-.22-2.94-.54-3.75-1.7-1.32-1.89.25-4.43 1.91-6.03 10.61-10.25 26.29-12.73 39.6-19.08 3.94-1.88 8.11-4.68 8.8-9 .72-4.54-3-8.84-7.34-10.39-4.33-1.55-9.1-1.03-13.67-.49 8.86-10.95 17.72-21.9 26.59-32.85 1.63-2.02 3.33-4.2 3.55-6.78.46-5.39-6.1-9.17-11.4-8.08s-9.33 5.27-13 9.24c8.11-16.83 14.2-34.64 18.1-52.91 1.2-5.59 1.83-12.35-2.44-16.15-4.2-3.73-11.15-2.27-15.27 1.54-4.13 3.81-6.2 9.27-8.42 14.43-6.17 14.3-14.52 27.66-24.67 39.48-1.16 1.35-2.41 2.73-4.08 3.32-5.12 1.82-9.42-4.62-9.84-10.03-.42-5.42.54-11.59-3.07-15.65-4.12-4.64-12.16-3.37-16.6.96-4.44 4.32-6.21 10.63-7.81 16.62-2.68 10.07-5.36 20.13-8.04 30.2-4.34-3.71-8.87-7.52-14.36-9.1s-12.25-.27-15.32 4.55c-1.56 2.45-1.98 5.42-2.55 8.26-4.98 24.92-23.53 45.27-29.84 69.89-4.72 18.41 1.74 42.66 24.65 40.64 22.78-2.05 47.59-9.58 70.17-14.28z" fill="#37c1d3"/><path clip-rule="evenodd" d="m620.64 772.87c4.65 5.47 11.08 8.32 18.72 8.32.94 0 1.89-.05 2.88-.11 15.84-1.4 32.59-5.42 48.78-9.31l.31-.074c7.435-1.783 14.457-3.466 21.41-4.916 18.55-3.86 37.73-8.77 50.52-22.5l3.59-3.86-36.14-5.79c-1.36-.22-1.78-.41-1.87-.49-.04-.29.38-1.33 1.54-2.45 6.666-6.446 15.518-9.636 24.892-13.014l.018-.006.197-.071c4.568-1.648 9.287-3.35 13.743-5.479 6.27-2.99 9.65-6.62 10.36-11.1.98-6.27-3.99-11.62-9.17-13.47-2.72-.97-5.53-1.23-8.3-1.18l22.45-27.74.003-.004c1.63-2.01 3.867-4.768 4.167-8.306.26-2.98-.94-5.81-3.38-7.98-3.02-2.69-7.48-3.91-11.38-3.1-1.7.35-3.29.97-4.76 1.76 5.68-13.58 10.09-27.69 13.17-42.09 1.23-5.73 2.22-13.92-3.32-18.84-5.53-4.91-14.03-3.05-19.05 1.58-4.18 3.87-6.37 8.99-8.48 13.95l-.61 1.43c-6.07 14.08-14.22 27.12-24.22 38.76-.96 1.11-1.9 2.15-2.89 2.5-.5.17-1.29.33-2.36-.36-1.9-1.24-3.51-4.36-3.74-7.25-.1-1.2-.12-2.45-.14-3.7v-.002c-.08-4.55-.171-9.699-3.63-13.588-2.1-2.37-5.16-3.74-8.62-3.87-4.26-.13-8.91 1.64-12.04 4.68-5.12 4.99-7.03 12.15-8.56 17.91l-6.9 25.93c-3.49-2.81-7.4-5.49-12.01-6.81-6.04-1.74-14.39-.67-18.47 5.74-1.65 2.6-2.23 5.58-2.73 8.2l-.2 1.02c-2.53 12.66-8.6 23.96-15.03 35.93l-.011.02c-5.746 10.704-11.681 21.757-14.769 33.79-3.45 13.45-1.09 27.56 6.03 35.94zm31.44-111.89c1.74-2.72 5.06-3.89 8.36-3.89 1.31 0 2.62.19 3.85.52 5 1.44 9.42 5.21 13.31 8.54l3.39 2.9 9.18-34.51c1.42-5.35 3.04-11.42 7.05-15.32 2.03-1.98 5.23-3.19 7.91-3.09 1.36.05 3.25.43 4.63 1.98 2.07 2.34 2.14 6.04 2.21 9.96.02 1.36.05 2.72.15 4.04.37 4.69 2.9 9.32 6.29 11.52 2.27 1.48 4.87 1.81 7.3.94 2.29-.82 3.87-2.5 5.28-4.14 10.37-12.08 18.82-25.6 25.12-40.2l.63-1.46c1.96-4.62 3.82-8.98 7.12-12.02 3.12-2.89 8.48-4.18 11.5-1.51 2.54 2.26 3.04 6.53 1.56 13.46-3.86 18.05-9.88 35.64-17.89 52.28l-8.11 16.85 12.7-13.72c3.77-4.07 7.24-7.51 11.51-8.39 2.15-.45 4.83.29 6.51 1.79.77.68 1.65 1.81 1.52 3.3-.14 1.69-1.42 3.38-2.94 5.26l-30.93 38.23 6.86-.81c4.02-.48 8.58-1.02 12.39.34 3.03 1.09 5.99 4.19 5.5 7.31-.39 2.51-2.76 4.76-7.23 6.9-4.27 2.03-8.93 3.71-13.43 5.33l-.096.035c-9.5 3.429-19.309 6.97-26.814 14.235-3.32 3.2-4.19 6.9-2.27 9.66 1.544 2.212 4.17 2.637 5.594 2.867l.016.003 25.32 4.05c-11.6 9.72-27.79 13.77-43.54 17.04-7.14 1.48-14.64 3.28-21.89 5.02l-.211.051c-15.935 3.824-32.397 7.775-47.759 9.129-7.12.63-12.77-1.47-16.81-6.23-5.88-6.93-7.83-19.35-4.87-30.91 2.908-11.373 8.682-22.126 14.269-32.53l.011-.02c6.34-11.8 12.89-24.01 15.59-37.49l.21-1.06c.44-2.33.87-4.54 1.95-6.24z" fill="#1a4a67" fill-rule="evenodd"/><path d="m628.6 772.49c-.74 0-1.48-.29-2.03-.87-1.08-1.12-1.04-2.9.08-3.97l107.23-102.78c1.11-1.07 2.9-1.04 3.97.08 1.08 1.12 1.04 2.9-.08 3.97l-107.22 102.79c-.55.52-1.25.78-1.95.78z" fill="#fff"/><path d="m665.74 736.9c-.13 0-.26-.01-.39-.03-1.54-.21-2.61-1.63-2.4-3.17l6.79-48.71c.22-1.54 1.61-2.61 3.17-2.39 1.54.21 2.61 1.63 2.4 3.17l-6.79 48.71c-.19 1.4-1.4 2.42-2.78 2.42z" fill="#fff"/><path d="m694.85 708.99c-1.35 0-2.54-.97-2.77-2.34-.26-1.53.77-2.98 2.3-3.24l40.99-6.96c1.53-.27 2.98.77 3.24 2.3s-.77 2.98-2.3 3.24l-40.99 6.96c-.16.03-.32.04-.47.04z" fill="#fff"/><path d="m615.88 688.19c-.58 0-1.16-.18-1.66-.55-1.25-.92-1.51-2.68-.59-3.93l71.28-96.75c.91-1.25 2.67-1.52 3.93-.6 1.25.92 1.51 2.68.59 3.93l-71.28 96.75c-.56.75-1.41 1.15-2.27 1.15z" fill="#fff"/><path d="m661.43 626.38c-.24 0-.48-.03-.71-.09-1.5-.39-2.4-1.92-2.01-3.43l11.11-42.63c.39-1.51 1.94-2.4 3.43-2.01 1.5.39 2.4 1.92 2.01 3.43l-11.11 42.63c-.34 1.26-1.48 2.1-2.72 2.1z" fill="#fff"/><path d="m96.77 766.47c5.82-3.58 8.59-11.43 6.31-17.87-3.72-10.52-13.35-6.98-20.19-12.5-8.06-6.51 1.69-16.74 1.15-24.42-.59-8.45-8.2-16.62-10.49-24.78-5.26-18.78 16.09-4.76 22.18-6.95 2.55-.92 4.22-3.48 4.8-6.12 1.49-6.75-1.35-12.2 2.35-18.59 3.57-6.17 8.84-8.95 7.32-17.33-.86-4.74-3.79-9.09-3.71-13.91.02-1.38.41-2.93 1.62-3.61.91-.51 2.06-.37 3.05-.03 3.29 1.15 5.45 4.22 8.09 6.49 2.65 2.27 6.9 3.67 9.44 1.28 1.69-1.59 1.86-4.16 2.2-6.45.62-4.14 3.53-7.02 7.13-4.62 3.93 2.61 2.43 12.88 1.84 16.56-.94 5.84-2.36 11.9-.63 17.56 2.87 9.36 10.71-1.13 14.13-4.23 2.8-2.54 7.48-4.06 10.17-1.41 5.35 5.28-3.25 12.33-4.39 17.34-.54 2.38.16 5.23 2.27 6.46 6.19 3.59 11.43-2.8 12.37 6.74.64 6.54-5.27 12.78-1.6 19.31 3.21 5.71 13.89 8.14 9.66 16.16-2.59 4.92-13.75 4.7-13.16 11.7.38 4.57 7.25 6.64 7.25 11.22 0 3.45-4.01 5.49-7.46 5.66-3.45.18-7.07-.63-10.25.72-3.61 1.53-5.69 5.96-4.58 9.71.97 3.27 4.01 6.24 3.06 9.51-1.15 3.93-6.6 4.08-10.64 3.44-16.52-2.58-34.22-4.3-49.29 2.96z" fill="#37c1d3"/><path d="m127.98 766.59c-1.55 0-2.81-1.26-2.81-2.81v-73.75c0-1.55 1.26-2.81 2.81-2.81s2.81 1.26 2.81 2.81v73.75c0 1.56-1.25 2.81-2.81 2.81z" fill="#fff"/><path d="m127.98 737.89c-.62 0-1.25-.2-1.77-.63-1.2-.98-1.39-2.75-.41-3.95l19.35-23.85c.97-1.21 2.75-1.39 3.95-.41s1.39 2.75.41 3.95l-19.35 23.85c-.55.68-1.36 1.04-2.18 1.04z" fill="#fff"/><path d="m127.98 717.75c-.64 0-1.28-.22-1.81-.66l-23.05-19.4c-1.19-1-1.34-2.77-.34-3.96s2.78-1.34 3.96-.34l23.05 19.4c1.19 1 1.34 2.77.34 3.96-.55.66-1.35 1-2.15 1z" fill="#fff"/><path d="m93.54 756.14c3.03 20.16 5.77 41.24 10.87 60.69.42 1.62.92 3.32 1.95 4.36 1.21 1.23 2.87 1.25 4.39 1.22 8.8-.2 17.62.36 26.43.31 8.32-.04 15.2.63 16.07-13.19.3-4.79 1.06-53.39 5.48-53.39-.03 0-65.19 0-65.19 0z" fill="#37c1d3"/><path clip-rule="evenodd" d="m125.371 825.35c3.58.09 7.159.18 10.729.18h1.08 1.15.002c7.839-.01 16.708-.021 17.708-15.82.05-.75.11-2.58.19-5.14 1.127-34.919 2.79-44.445 3.989-46.264.004-.006.008-.011.011-.016-.004.005-.007.01-.011.016-.156.224-.718.644-1.509.644v-5.62h-68.44l1.78 11.94c2.56 17.43 5.22 35.46 9.63 52.27.53 2.01 1.17 4.1 2.67 5.62 2.116 2.136 4.903 2.081 6.43 2.05h.03c4.711-.108 9.556.014 14.235.132l.325.008zm.139-5.62c-3.52-.09-7.13-.18-10.74-.18-1.36 0-2.73.01-4.08.05-1.28.04-1.98-.02-2.33-.38-.57-.58-1-2.22-1.23-3.1-4.311-16.436-6.936-34.23-9.4758-51.438l-.0342-.232-.82-5.5h57.33c-1.51 6.14-2.65 18.92-3.51 45.44-.08 2.47-.14 4.24-.18 4.97-.67 10.535-4.247 10.54-12.1 10.55h-.01-1.17c-3.9.01-7.76-.08-11.65-.18z" fill="#1a4a67" fill-rule="evenodd"/><path d="m152.77 768.18h-53.2801c-6.63 0-12.05-5.42-12.05-12.05s5.42-12.05 12.05-12.05h53.2801c6.63 0 12.05 5.42 12.05 12.05s-5.42 12.05-12.05 12.05z" fill="#1a4a67"/><path d="m434.58 876.74c239.951 0 434.47-16.619 434.47-37.12s-194.519-37.12-434.47-37.12-434.470015 16.619-434.470015 37.12 194.519015 37.12 434.470015 37.12z" fill="#e6e7e8"/><path d="m628.73 833.74h-404.38c-13.24 0-24.07-10.83-24.07-24.07v-292.86c0-13.24 10.83-24.07 24.07-24.07h404.38c13.24 0 24.07 10.83 24.07 24.07v292.87c0 13.23-10.83 24.06-24.07 24.06z" fill="#1a4a67"/><path d="m616.98 805.3h-382.83c-12.75 0-23.18-10.43-23.18-23.18v-251.38c0-12.75 10.43-23.18 23.18-23.18h382.84c12.75 0 23.18 10.43 23.18 23.18v251.38c-.01 12.75-10.44 23.18-23.19 23.18z" fill="#e6e7e8"/><path d="m450.44 818.19h-31.74c-.77 0-1.4-.63-1.4-1.4s.63-1.4 1.4-1.4h31.74c.77 0 1.4.63 1.4 1.4.01.76-.62 1.4-1.4 1.4z" fill="#e3e5fc"/><path d="m224.43 504.2c1.745 0 3.16-1.415 3.16-3.16s-1.415-3.16-3.16-3.16-3.16 1.415-3.16 3.16 1.415 3.16 3.16 3.16z" fill="#e3e5fc"/><path d="m238.02 504.2c1.745 0 3.16-1.415 3.16-3.16s-1.415-3.16-3.16-3.16-3.16 1.415-3.16 3.16 1.415 3.16 3.16 3.16z" fill="#fff"/><path d="m251.74 504.2c1.745 0 3.16-1.415 3.16-3.16s-1.415-3.16-3.16-3.16-3.16 1.415-3.16 3.16 1.415 3.16 3.16 3.16z" fill="#4b369d"/><path d="m444.44 676.24h-192.1c-2.06 0-3.75-1.69-3.75-3.75s1.69-3.75 3.75-3.75h192.1c2.06 0 3.75 1.69 3.75 3.75s-1.68 3.75-3.75 3.75z" fill="#fff"/><path d="m444.44 693.43h-192.1c-2.06 0-3.75-1.69-3.75-3.75s1.69-3.75 3.75-3.75h192.1c2.06 0 3.75 1.69 3.75 3.75s-1.68 3.75-3.75 3.75z" fill="#fff"/><path d="m444.44 710.62h-192.1c-2.06 0-3.75-1.69-3.75-3.75s1.69-3.75 3.75-3.75h192.1c2.06 0 3.75 1.69 3.75 3.75s-1.68 3.75-3.75 3.75z" fill="#fff"/><path d="m444.44 730h-192.1c-2.06 0-3.75-1.69-3.75-3.75s1.69-3.75 3.75-3.75h192.1c2.06 0 3.75 1.69 3.75 3.75s-1.68 3.75-3.75 3.75z" fill="#fff"/><path d="m444.44 747.19h-192.1c-2.06 0-3.75-1.69-3.75-3.75s1.69-3.75 3.75-3.75h192.1c2.06 0 3.75 1.69 3.75 3.75s-1.68 3.75-3.75 3.75z" fill="#fff"/><path d="m444.44 764.38h-192.1c-2.06 0-3.75-1.69-3.75-3.75s1.69-3.75 3.75-3.75h192.1c2.06 0 3.75 1.69 3.75 3.75s-1.68 3.75-3.75 3.75z" fill="#fff"/><path d="m293.55 635.61h109.68c24.73 0 44.96-20.23 44.96-44.96v-8.04c0-24.73-20.23-44.96-44.96-44.96h-109.68c-24.73 0-44.96 20.23-44.96 44.96v8.04c-.01 24.73 20.23 44.96 44.96 44.96z" fill="#fff"/><path d="m535.38 709.17h22.08c24.73 0 44.96-20.23 44.96-44.96v-81.6c0-24.73-20.23-44.96-44.96-44.96h-22.08c-24.73 0-44.96 20.23-44.96 44.96v81.6c-.01 24.73 20.23 44.96 44.96 44.96z" fill="#fff"/><path d="m510.64 759.9h71.57c11.12 0 20.22-9.1 20.22-20.22s-9.1-20.22-20.22-20.22h-71.57c-11.12 0-20.22 9.1-20.22 20.22-.01 11.12 9.09 20.22 20.22 20.22z" fill="#fff"/><path d="m299.87 451.97h-160.09c-27.82 0-50.58-22.76-50.58-50.58s22.76-50.58 50.58-50.58h160.09c27.82 0 50.58 22.76 50.58 50.58 0 27.81-22.76 50.58-50.58 50.58z" fill="#e6e7e8"/><g fill="#1a4a67"><path d="m194.69 423.75-21.67-21.06 21.62-22.09 4.01 3.93-17.67 18.06 17.62 17.13z"/><path d="m241.14 423.7-4.01-3.93 17.67-18.06-17.62-17.13 3.91-4.03 21.67 21.06z"/><path d="m203.518 437.955h75.2216v5.62012h-75.2216z" transform="matrix(.3110928 -.95037954 .95037954 .3110928 -276.018456 495.129696)"/><path clip-rule="evenodd" d="m1090.66 140.54h72.6v-72.6001h-72.6zm66.98-5.62h-61.36v-61.3601h61.36z" fill-rule="evenodd"/><path d="m1091.47 135.751h94.7191v5.61995h-94.7191z" transform="matrix(.70710678 -.70710678 .70710678 .70710678 223.693709 811.546386)"/><path d="m1091.47 72.7479h5.61995v94.7191h-5.61995z" transform="matrix(.70710678 -.70710678 .70710678 .70710678 268.243628 793.093205)"/><path clip-rule="evenodd" d="m1157.64 140.54h72.6v-72.6001h-72.6zm66.98-5.62h-61.36v-61.3601h61.36z" fill-rule="evenodd"/><path d="m1158.45 135.75h94.7191v5.61995h-94.7191z" transform="matrix(.70710678 -.70710678 .70710678 .70710678 243.312404 858.908105)"/><path d="m1158.45 72.7472h5.61995v94.7191h-5.61995z" transform="matrix(.70710678 -.70710678 .70710678 .70710678 287.862111 840.455012)"/><path clip-rule="evenodd" d="m956.7 810.32h72.6v-72.6h-72.6zm66.99-5.62h-61.36v-61.36h61.36z" fill-rule="evenodd"/><path d="m957.509 805.528h94.7191v5.61995h-94.7191z" transform="matrix(.70710678 -.70710678 .70710678 .70710678 -289.146418 912.994796)"/><path d="m957.516 742.518h5.61995v94.7191h-5.61995z" transform="matrix(.70710678 -.70710678 .70710678 .70710678 -244.58957 894.544544)"/><path clip-rule="evenodd" d="m956.7 743.35h72.6v-72.6h-72.6zm66.99-5.63h-61.36v-61.36h61.36z" fill-rule="evenodd"/><path d="m957.515 738.556h94.7191v5.61995h-94.7191z" transform="matrix(.70710678 -.70710678 .70710678 .70710678 -241.788305 893.383394)"/><path d="m957.522 675.547h5.61995v94.7191h-5.61995z" transform="matrix(.70710678 -.70710678 .70710678 .70710678 -197.232164 874.933435)"/><path clip-rule="evenodd" d="m956.7 676.37h72.6v-72.6h-72.6zm66.99-5.62h-61.36v-61.36h61.36z" fill-rule="evenodd"/><path d="m957.514 671.577h94.7191v5.61995h-94.7191z" transform="matrix(.70710678 -.70710678 .70710678 .70710678 -194.427293 873.764992)"/><path d="m957.521 608.568h5.61995v94.7191h-5.61995z" transform="matrix(.70710678 -.70710678 .70710678 .70710678 -149.871152 855.315033)"/><path clip-rule="evenodd" d="m956.7 609.39h72.6v-72.6h-72.6zm66.99-5.62h-61.36v-61.36h61.36z" fill-rule="evenodd"/><path d="m957.513 604.598h94.7191v5.61995h-94.7191z" transform="matrix(.70710678 -.70710678 .70710678 .70710678 -147.066281 854.14659)"/><path d="m957.52 541.589h5.61995v94.7191h-5.61995z" transform="matrix(.70710678 -.70710678 .70710678 .70710678 -102.51014 835.696631)"/><path clip-rule="evenodd" d="m956.7 542.41h72.6v-72.6h-72.6zm66.99-5.62h-61.36v-61.36h61.36z" fill-rule="evenodd"/><path d="m957.512 537.619h94.7191v5.61995h-94.7191z" transform="matrix(.70710678 -.70710678 .70710678 .70710678 -99.705269 834.528188)"/><path d="m957.519 474.61h5.61995v94.7191h-5.61995z" transform="matrix(.70710678 -.70710678 .70710678 .70710678 -55.149127 816.078229)"/><path clip-rule="evenodd" d="m956.7 475.43h72.6v-72.6h-72.6zm66.99-5.62h-61.36v-61.36h61.36z" fill-rule="evenodd"/><path d="m957.511 470.64h94.7191v5.61995h-94.7191z" transform="matrix(.70710678 -.70710678 .70710678 .70710678 -52.344257 814.909786)"/><path d="m957.518 407.631h5.61995v94.7191h-5.61995z" transform="matrix(.70710678 -.70710678 .70710678 .70710678 -7.788115 796.459827)"/><path clip-rule="evenodd" d="m956.7 408.45h72.6v-72.6h-72.6zm66.99-5.62h-61.36v-61.36h61.36z" fill-rule="evenodd"/><path d="m957.517 403.669h94.7191v5.61995h-94.7191z" transform="matrix(.70710678 -.70710678 .70710678 .70710678 -4.986851 795.298677)"/><path d="m957.517 340.652h5.61995v94.7191h-5.61995z" transform="matrix(.70710678 -.70710678 .70710678 .70710678 39.572897 776.841425)"/><path clip-rule="evenodd" d="m956.7 341.48h72.6v-72.6h-72.6zm66.99-5.62h-61.36v-61.36h61.36z" fill-rule="evenodd"/><path d="m957.516 336.689h94.7191v5.61995h-94.7191z" transform="matrix(.70710678 -.70710678 .70710678 .70710678 42.374868 775.679982)"/><path d="m957.524 273.68h5.61995v94.7191h-5.61995z" transform="matrix(.70710678 -.70710678 .70710678 .70710678 86.931303 757.23073)"/><path clip-rule="evenodd" d="m956.7 274.5h72.6v-72.6h-72.6zm66.99-5.62h-61.36v-61.36h61.36z" fill-rule="evenodd"/><path d="m957.516 269.71h94.7191v5.61995h-94.7191z" transform="matrix(.70710678 -.70710678 .70710678 .70710678 89.736173 756.062287)"/><path d="m957.523 206.701h5.61995v94.7191h-5.61995z" transform="matrix(.70710678 -.70710678 .70710678 .70710678 134.292315 737.612328)"/><path clip-rule="evenodd" d="m956.7 207.52h72.6v-72.6h-72.6zm66.99-5.62h-61.36v-61.36h61.36z" fill-rule="evenodd"/><path d="m957.515 202.731h94.7191v5.61995h-94.7191z" transform="matrix(.70710678 -.70710678 .70710678 .70710678 137.097186 736.443885)"/><path d="m957.522 139.722h5.61995v94.7191h-5.61995z" transform="matrix(.70710678 -.70710678 .70710678 .70710678 181.653327 717.993926)"/><path clip-rule="evenodd" d="m956.7 140.54h72.6v-72.6001h-72.6zm66.99-5.62h-61.36v-61.3601h61.36z" fill-rule="evenodd"/><path d="m957.514 135.752h94.7191v5.61995h-94.7191z" transform="matrix(.70710678 -.70710678 .70710678 .70710678 184.458198 716.825483)"/><path d="m957.521 72.7427h5.61995v94.7191h-5.61995z" transform="matrix(.70710678 -.70710678 .70710678 .70710678 229.014551 698.375436)"/><path clip-rule="evenodd" d="m956.7 73.56h72.6v-72.600039h-72.6zm66.99-5.62h-61.36v-61.36004h61.36z" fill-rule="evenodd"/><path d="m957.52 68.7804h94.7191v5.61995h-94.7191z" transform="matrix(.70710678 -.70710678 .70710678 .70710678 231.816028 697.214198)"/><path d="m957.52 5.76367h5.61995v94.7191h-5.61995z" transform="matrix(.70710678 -.70710678 .70710678 .70710678 276.375585 678.757025)"/><path clip-rule="evenodd" d="m1023.68 140.54h72.6v-72.6001h-72.6zm66.98-5.62h-61.36v-61.3601h61.36z" fill-rule="evenodd"/><path d="m1024.49 135.752h94.7191v5.61995h-94.7191z" transform="matrix(.70710678 -.70710678 .70710678 .70710678 204.075014 764.184666)"/><path d="m1024.49 72.7489h5.61995v94.7191h-5.61995z" transform="matrix(.70710678 -.70710678 .70710678 .70710678 248.624933 745.731486)"/><path clip-rule="evenodd" d="m889.73 140.54h72.6v-72.6001h-72.6zm66.98-5.62h-61.36v-61.3601h61.36z" fill-rule="evenodd"/><path d="m890.542 135.746h94.7191v5.61995h-94.7191z" transform="matrix(.70710678 -.70710678 .70710678 .70710678 164.846796 669.46737)"/><path d="m890.542 72.7437h5.61995v94.7191h-5.61995z" transform="matrix(.70710678 -.70710678 .70710678 .70710678 209.396149 651.014424)"/><path clip-rule="evenodd" d="m822.75 140.54h72.6v-72.6001h-72.6zm66.98-5.62h-61.36v-61.3601h61.36z" fill-rule="evenodd"/><path d="m823.563 135.747h94.7191v5.61995h-94.7191z" transform="matrix(.70710678 -.70710678 .70710678 .70710678 145.228394 622.106358)"/><path d="m823.563 72.7445h5.61995v94.7191h-5.61995z" transform="matrix(.70710678 -.70710678 .70710678 .70710678 189.777889 603.653353)"/><path clip-rule="evenodd" d="m752.27 140.54h76.57v-76.57zm70.94-5.62h-57.38l57.38-57.38z" fill-rule="evenodd"/><path d="m757.053 135.747h94.7191v5.61995h-94.7191z" transform="matrix(.70710678 -.70710678 .70710678 .70710678 125.748066 575.076686)"/><path d="m756.24 171.22h5.62v236.17h-5.62z"/><path d="m772.13 425.4h-23.56c-6.73 0-12.24-5.51-12.24-12.24v-23.56c0-6.73 5.51-12.24 12.24-12.24h23.56c6.73 0 12.24 5.51 12.24 12.24v23.56c0 6.73-5.51 12.24-12.24 12.24z"/><path d="m752.11 477.45c-15.04 0-24.49-13-26.06-25.89l5.58-.68c1.23 10.11 8.16 20.95 20.48 20.95h.14c9.66-.06 20-7.13 20-17.54 0-12.47-12.41-17.65-12.94-17.87l-1.75-.71-.01-18.03h5.62v14.36c4.27 2.22 14.7 8.99 14.7 22.26 0 14.21-13.28 23.08-25.58 23.16-.06-.01-.12-.01-.18-.01z"/><path d="m893.44 190.74h-194.3c-12.52 0-22.76-10.24-22.76-22.76s10.24-22.76 22.76-22.76h194.3c12.52 0 22.76 10.24 22.76 22.76-.01 12.52-10.25 22.76-22.76 22.76z"/><path d="m1259.09 879.91h-303.8c-21.12 0-38.41-17.28-38.41-38.41v-17.24c0-21.12 17.28-38.41 38.41-38.41h303.8c21.12 0 38.41 17.28 38.41 38.41v17.24c-.01 21.12-17.29 38.41-38.41 38.41z"/></g><path d="m1212.37 823.7h-153.63c-4.64 0-8.43-3.79-8.43-8.43s3.79-8.43 8.43-8.43h153.63c4.64 0 8.43 3.79 8.43 8.43s-3.79 8.43-8.43 8.43z" fill="#fff"/><path d="m1140.64 856.49h-81.9c-4.64 0-8.43-3.79-8.43-8.43s3.79-8.43 8.43-8.43h81.9c4.64 0 8.43 3.79 8.43 8.43 0 4.63-3.79 8.43-8.43 8.43z" fill="#fff"/><path d="m986.14 863.98c15.78 0 28.57-12.791 28.57-28.57s-12.79-28.57-28.57-28.57c-15.779 0-28.57 12.791-28.57 28.57s12.791 28.57 28.57 28.57z" fill="#fff"/></g></svg>